<svg width="321" height="32" viewBox="0 0 321 32" fill="none" xmlns="http://www.w3.org/2000/svg">
<path d="M24.2228 1.69147H0V7.44614H24.2228V1.69147Z" fill="#581C87"/>
<path d="M8.78371 7.4455H15.4392V31.6003H8.78371V7.4455Z" fill="url(#paint0_linear_155_336)"/>
<path d="M42.6437 9.09772V14.824C40.3259 14.824 38.4405 16.705 38.4404 19.0175L38.4405 31.4733H32.7009V19.0176C32.7009 13.5477 37.1611 9.09772 42.6437 9.09772Z" fill="#1F1E21"/>
<path d="M76.9444 22.7197C77.0861 22.0168 77.1571 21.2917 77.1571 20.5489C77.1571 19.8547 77.095 19.1783 76.971 18.5195C76.0138 13.1698 71.3119 9.09772 65.6791 9.09772C59.3509 9.09772 54.2014 14.2353 54.2014 20.5489C54.2014 26.8625 59.3509 32 65.6791 32C70.656 32 74.9013 28.8211 76.4924 24.3954H69.8982C68.8522 25.5361 67.3499 26.2523 65.6791 26.2523C63.2996 26.2523 61.252 24.7889 60.3967 22.7197H70.9662H76.9444ZM60.3392 18.5195C61.1591 16.3752 63.2463 14.8454 65.6791 14.8454C68.1166 14.8454 70.1996 16.3752 71.0238 18.5195H60.3392Z" fill="#1F1E21"/>
<path d="M96.087 31.6004H90.3188V1.69073H96.087L96.087 31.6004Z" fill="#1F1E21"/>
<path d="M115.657 31.6004H109.889V1.69073H115.657L115.657 31.6004Z" fill="#1F1E21"/>
<path d="M151.522 22.7197C151.664 22.0168 151.735 21.2917 151.735 20.5489C151.735 19.8547 151.673 19.1783 151.549 18.5195C150.591 13.1698 145.89 9.09772 140.257 9.09772C133.929 9.09772 128.779 14.2353 128.779 20.5489C128.779 26.8625 133.929 32 140.257 32C145.234 32 149.479 28.8211 151.07 24.3954H144.476C143.43 25.5361 141.928 26.2523 140.257 26.2523C137.877 26.2523 135.83 24.7889 134.974 22.7197H145.544H151.522ZM134.917 18.5195C135.737 16.3752 137.824 14.8454 140.257 14.8454C142.694 14.8454 144.777 16.3752 145.601 18.5195H134.917Z" fill="#1F1E21"/>
<path d="M186.906 20.3381L186.906 31.5788H181.139V20.334C181.137 17.3102 178.67 14.851 175.639 14.851C172.606 14.851 170.139 17.3123 170.139 20.3381L170.139 31.5788H164.372L164.372 20.3381C164.372 14.1401 169.426 9.09772 175.639 9.09772C181.851 9.09772 186.906 14.1401 186.906 20.3381Z" fill="#1F1E21"/>
<path d="M200.281 8.9967H205.924V30.9236H200.281V8.9967Z" fill="#1F1E21"/>
<path d="M203.103 6.92881C205.021 6.92881 206.575 5.37774 206.575 3.46439C206.575 1.55105 205.021 0 203.103 0C201.185 0 199.63 1.55105 199.63 3.46439C199.63 5.37774 201.185 6.92881 203.103 6.92881Z" fill="#581C87"/>
<path d="M226.024 31.6004H220.256V1.69073H226.024L226.024 31.6004Z" fill="#1F1E21"/>
<path d="M250.646 25.8451V31.602C244.593 31.602 239.671 26.6905 239.671 20.652V1.69073H245.441V9.46043H250.525V14.7744H245.441V20.652C245.441 23.5104 247.741 25.8451 250.646 25.8451Z" fill="#1F1E21"/>
<path d="M274.297 31.892C267.998 31.892 262.873 26.7793 262.873 20.4951C262.873 14.2104 267.998 9.09772 274.297 9.09772C280.596 9.09772 285.721 14.2104 285.721 20.4951C285.721 26.7793 280.596 31.892 274.297 31.892ZM274.297 14.8185C271.16 14.8185 268.607 17.3652 268.607 20.4951C268.607 23.6249 271.16 26.1712 274.297 26.1712C277.434 26.1712 279.987 23.6249 279.987 20.4951C279.987 17.3652 277.434 14.8185 274.297 14.8185Z" fill="#1F1E21"/>
<path d="M321 20.3381L321 31.5788H315.233V20.334C315.231 17.3102 312.764 14.851 309.733 14.851C306.7 14.851 304.233 17.3123 304.233 20.3381L304.233 31.5788H298.466L298.466 20.3381C298.466 14.1401 303.52 9.09772 309.733 9.09772C315.945 9.09772 321 14.1401 321 20.3381Z" fill="#1F1E21"/>
<defs>
<linearGradient id="paint0_linear_155_336" x1="12.1115" y1="7.4455" x2="12.1115" y2="31.6003" gradientUnits="userSpaceOnUse">
<stop stop-color="#737373"/>
<stop offset="0.175" stop-color="#1F1E21"/>
</linearGradient>
</defs>
</svg>
